<?xml version="1.0" encoding="UTF-8" standalone="no"?>
<svg width="40px" height="40px" viewBox="0 0 40 40" version="1.1" xmlns="http://www.w3.org/2000/svg" xmlns:xlink="http://www.w3.org/1999/xlink">
    <!-- Generator: sketchtool 46 (44423) - http://www.bohemiancoding.com/sketch -->
    <title>AC5BC614-F188-4A95-9B8C-B83F7D8728E8</title>
    <desc>Created with sketchtool.</desc>
    <defs></defs>
    <g id="Symbols" stroke="none" stroke-width="1" fill="none" fill-rule="evenodd">
        <g id="Footer" transform="translate(-620.000000, -544.000000)">
            <g id="Behance" transform="translate(620.000000, 544.000000)">
                <g id="Page-1">
                    <g id="Group-3" fill="none">
                        <path d="M19.9346275,0.130666667 C8.92560784,0.130666667 0.000117647059,9.05654902 0.000117647059,20.0655686 C0.000117647059,31.0745882 8.92560784,40.0000784 19.9346275,40.0000784 C30.9436471,40.0000784 39.8691373,31.0745882 39.8691373,20.0655686 C39.8691373,9.05654902 30.9436471,0.130666667 19.9346275,0.130666667" id="Fill-1"></path>
                    </g>
                    <path d="M23.9890402,20.6167143 C24.428914,17.5233215 28.1709891,17.7335286 28.3622044,20.6167143 L23.9890402,20.6167143 Z M31.178892,20.447661 C30.2708161,14.4569611 21.0909091,14.1047332 21.0909091,21.9376701 C21.0909091,29.6733711 29.7239247,28.4633692 31.0057753,24.6041932 L27.9258716,24.6041932 C26.8505807,25.8827848 23.7458899,25.5115938 23.9190066,22.5803954 L31.2689913,22.5803954 C31.2839423,21.631841 31.2540404,20.9515931 31.178892,20.447661 L31.178892,20.447661 Z" id="Fill-4" fill="#1A4052"></path>
                    <path d="M14.3830107,18.354954 L11.116755,18.354954 L11.116755,15.2576241 L14.0804779,15.2576241 C17.202334,15.2576241 16.8166145,18.354954 14.3830107,18.354954 M14.1487538,24.0213962 L11.116755,24.0213962 L11.116755,20.7777543 L14.1985873,20.7777543 C16.9296228,20.7777543 17.1109071,24.0198229 14.1487538,24.0213962 M17.3800867,19.0747145 C20.1527156,17.6536792 20.0510866,12.4419054 14.7420477,12.3636364 L8,12.3636364 L8,26.9090909 L14.2684328,26.9090909 C20.8472462,26.9090909 20.7361998,20.2990939 17.3800867,19.0747145" id="Fill-6" fill="#1A4052"></path>
                    <polygon id="Fill-8" fill="#1A4052" points="23.2727273 13.8181818 29.8181818 13.8181818 29.8181818 12.3636364 23.2727273 12.3636364"></polygon>
                </g>
            </g>
        </g>
    </g>
</svg>
