<?xml version="1.0" encoding="UTF-8" standalone="no"?>
<svg width="66px" height="81px" viewBox="0 0 66 81" version="1.1" xmlns="http://www.w3.org/2000/svg" xmlns:xlink="http://www.w3.org/1999/xlink">
    <!-- Generator: Sketch 46 (44423) - http://www.bohemiancoding.com/sketch -->
    <title>Ojo</title>
    <desc>Created with Sketch.</desc>
    <defs></defs>
    <g id="2-Quienes-somos" stroke="none" stroke-width="1" fill="none" fill-rule="evenodd">
        <g transform="translate(-607.000000, -676.000000)" id="Ojo">
            <g transform="translate(610.000000, 679.000000)">
                <path d="M30.1917568,37.2910396 C22.2295946,37.2910396 15.0790541,33.8179187 10.1558108,28.3020725 C15.0790541,22.7870396 22.2295946,19.3131055 30.1917568,19.3131055 C38.1539189,19.3131055 45.3044595,22.7870396 50.2277027,28.3020725 C45.3044595,33.8179187 38.1539189,37.2910396 30.1917568,37.2910396 Z M30.1917568,0.609808791 C13.8531081,0.609808791 0.608513514,13.8940286 0.608513514,30.2797429 C0.608513514,55.0055011 30.1917568,73.796622 30.1917568,73.796622 C30.1917568,73.796622 59.775,54.0166659 59.775,30.2797429 C59.775,13.8940286 46.5304054,0.609808791 30.1917568,0.609808791 Z" id="Stroke-1" stroke="#1A4052" stroke-width="5.5"></path>
                <path d="M34.673027,28.3023165 C34.673027,25.8196571 32.6662703,23.807833 30.1916757,23.807833 C27.7170811,23.807833 25.7103243,25.8196571 25.7103243,28.3023165 C25.7103243,30.7841626 27.7170811,32.7968 30.1916757,32.7968 C32.6662703,32.7968 34.673027,30.7841626 34.673027,28.3023165" id="Fill-3" fill="#1A4052"></path>
                <path d="M11.0027027,37.7996879 C11.0027027,37.0206549 10.3735135,36.3904352 9.59756757,36.3904352 C8.82081081,36.3904352 8.19162162,37.0206549 8.19162162,37.7996879 C8.19162162,38.5779077 8.82081081,39.2089407 9.59756757,39.2089407 C10.3735135,39.2089407 11.0027027,38.5779077 11.0027027,37.7996879" id="Fill-5" fill="#1A4052"></path>
                <path d="M17.543027,42.0280154 C17.543027,41.2497956 16.9138378,40.6187626 16.1378919,40.6187626 C15.3619459,40.6187626 14.7319459,41.2497956 14.7319459,42.0280154 C14.7319459,42.8070484 15.3619459,43.4372681 16.1378919,43.4372681 C16.9138378,43.4372681 17.543027,42.8070484 17.543027,42.0280154" id="Fill-7" fill="#1A4052"></path>
                <path d="M31.5972162,44.7387736 C31.5972162,43.9605538 30.968027,43.3295209 30.1920811,43.3295209 C29.4153243,43.3295209 28.7861351,43.9605538 28.7861351,44.7387736 C28.7861351,45.5178066 29.4153243,46.1480264 30.1920811,46.1480264 C30.968027,46.1480264 31.5972162,45.5178066 31.5972162,44.7387736" id="Fill-9" fill="#1A4052"></path>
                <path d="M23.8675946,44.0339846 C23.8675946,43.2557648 23.2384054,42.6247319 22.4624595,42.6247319 C21.6857027,42.6247319 21.0565135,43.2557648 21.0565135,44.0339846 C21.0565135,44.8130176 21.6857027,45.4432374 22.4624595,45.4432374 C23.2384054,45.4432374 23.8675946,44.8130176 23.8675946,44.0339846" id="Fill-11" fill="#1A4052"></path>
                <path d="M49.3808108,37.7996879 C49.3808108,37.0206549 50.01,36.3904352 50.7859459,36.3904352 C51.5627027,36.3904352 52.1918919,37.0206549 52.1918919,37.7996879 C52.1918919,38.5779077 51.5627027,39.2089407 50.7859459,39.2089407 C50.01,39.2089407 49.3808108,38.5779077 49.3808108,37.7996879" id="Fill-13" fill="#1A4052"></path>
                <path d="M42.8404865,42.0280154 C42.8404865,41.2497956 43.4696757,40.6187626 44.2456216,40.6187626 C45.0215676,40.6187626 45.6515676,41.2497956 45.6515676,42.0280154 C45.6515676,42.8070484 45.0215676,43.4372681 44.2456216,43.4372681 C43.4696757,43.4372681 42.8404865,42.8070484 42.8404865,42.0280154" id="Fill-15" fill="#1A4052"></path>
                <path d="M36.5159189,44.0339846 C36.5159189,43.2557648 37.1451081,42.6247319 37.9210541,42.6247319 C38.6978108,42.6247319 39.327,43.2557648 39.327,44.0339846 C39.327,44.8130176 38.6978108,45.4432374 37.9210541,45.4432374 C37.1451081,45.4432374 36.5159189,44.8130176 36.5159189,44.0339846" id="Fill-17" fill="#1A4052"></path>
            </g>
        </g>
    </g>
</svg>