<?xml version="1.0" encoding="UTF-8" standalone="no"?>
<svg width="40px" height="40px" viewBox="0 0 40 40" version="1.1" xmlns="http://www.w3.org/2000/svg" xmlns:xlink="http://www.w3.org/1999/xlink">
    <!-- Generator: Sketch 46 (44423) - http://www.bohemiancoding.com/sketch -->
    <title>LinkedIn</title>
    <desc>Created with Sketch.</desc>
    <defs></defs>
    <g id="Symbols" stroke="none" stroke-width="1" fill="none" fill-rule="evenodd">
        <g id="Footer" transform="translate(-707.000000, -544.000000)">
            <g id="LinkedIn" transform="translate(707.000000, 544.000000)">
                <circle id="Oval-Copy-3" fill="none" cx="20" cy="20" r="20"></circle>
                <g id="iconmonstr-linkedin-1" transform="translate(11.000000, 11.000000)" fill-rule="nonzero" fill="#1A4052">
                    <path d="M4,2 C4,3.1048 3.10483871,4 2,4 C0.89516129,4 0,3.1048 0,2 C0,0.896 0.89516129,0 2,0 C3.10483871,0 4,0.896 4,2 Z M4,6 L0,6 L0,18 L4,18 L4,6 Z M10.7292631,5.38867115 L7,5.38867115 L7,18 L10.7300138,18 L10.7300138,11.3798406 C10.7300138,7.69890895 15.2557238,7.39781348 15.2557238,11.3798406 L15.2557238,18 L19,18 L19,10.0146642 C19,3.80358476 12.3026398,4.02980047 10.7292631,7.08725951 L10.7292631,5.38867115 Z" id="Shape"></path>
                </g>
            </g>
        </g>
    </g>
</svg>
