<?xml version="1.0" encoding="UTF-8" standalone="no"?>
<svg width="120px" height="64px" viewBox="0 0 120 64" version="1.1" xmlns="http://www.w3.org/2000/svg" xmlns:xlink="http://www.w3.org/1999/xlink">
    <!-- Generator: sketchtool 46 (44423) - http://www.bohemiancoding.com/sketch -->
    <title>BD872674-E486-429C-BC5B-D664274522D6</title>
    <desc>Created with sketchtool.</desc>
    <defs>
        <polygon id="path-1" points="0 63.3540373 120 63.3540373 120 0 0 0"></polygon>
    </defs>
    <g id="Symbols" stroke="none" stroke-width="1" fill="none" fill-rule="evenodd">
        <g id="Header" transform="translate(-23.000000, -28.000000)">
            <g id="Logo-Tribe" transform="translate(23.000000, 28.000000)">
                <path d="M118.053631,53.6645963 L74.989274,53.6645963 C74.7896763,53.6645963 73.7888199,53.4974555 73.7888199,53.2919255 C73.7888199,53.0863954 74.7896763,52.9192547 74.989274,52.9192547 L118.053631,52.9192547 C118.253802,52.9192547 119.254658,53.0863954 119.254658,53.2919255 C119.254658,53.4974555 118.253802,53.6645963 118.053631,53.6645963 Z" id="Fill-1" fill="#FFFFFF"></path>
                <path d="M52.930507,61.1212784 C52.930507,60.1355392 52.7486221,59.6254488 52.3732642,59.6254488 L52.1455303,59.6254488 L52.1455303,62.6099823 L52.3732642,62.6099823 C52.7541643,62.6099823 52.930507,62.07317 52.930507,61.1212784 L52.930507,61.1212784 Z M51.4285714,63.3540373 L51.4285714,58.8819876 L52.3732642,58.8819876 C53.2887345,58.8819876 53.6645963,59.8469432 53.6645963,61.1212784 C53.6645963,62.4086777 53.2947805,63.3540373 52.3788064,63.3540373 L51.4285714,63.3540373 Z" id="Fill-3" fill="#FFFFFF"></path>
                <mask id="mask-2" fill="white">
                    <use xlink:href="#path-1"></use>
                </mask>
                <g id="Clip-6"></g>
                <polygon id="Fill-5" fill="#FFFFFF" mask="url(#mask-2)" points="57.3913043 63.3540373 58.136646 63.3540373 58.136646 58.8819876 57.3913043 58.8819876"></polygon>
                <path d="M61.1180124,61.1180124 C61.1180124,59.7893683 61.5004972,58.8819876 62.3478,58.8819876 C62.8949513,58.8819876 63.2008349,59.3422781 63.3305879,59.8995625 L62.74227,60.1394646 C62.677133,59.8410218 62.5770825,59.6080069 62.3478,59.6080069 C62.0533805,59.6080069 61.8772499,60.0809239 61.8772499,61.1180124 C61.8772499,62.1482138 62.0533805,62.6280179 62.3478,62.6280179 C62.5124665,62.6280179 62.6245022,62.5568508 62.7011034,62.4334562 L62.7011034,61.6494701 L62.2592136,61.6494701 L62.2592136,60.9297639 L63.3540373,60.9297639 L63.3540373,62.7835525 C63.0950523,63.1462752 62.7891687,63.3540373 62.3478,63.3540373 C61.5004972,63.3540373 61.1180124,62.4403433 61.1180124,61.1180124" id="Fill-7" fill="#FFFFFF" mask="url(#mask-2)"></path>
                <polygon id="Fill-8" fill="#FFFFFF" mask="url(#mask-2)" points="67.0807453 63.3540373 67.826087 63.3540373 67.826087 58.8819876 67.0807453 58.8819876"></polygon>
                <polygon id="Fill-9" fill="#FFFFFF" mask="url(#mask-2)" points="71.4962505 63.3540373 71.4962505 59.6259438 70.8074534 59.6259438 70.8074534 58.8819876 73.0434783 58.8819876 73.0434783 59.6259438 72.3552849 59.6259438 72.3552849 63.3540373"></polygon>
                <path d="M77.515528,59.8272217 L77.1780383,61.7847824 L77.8530176,61.7847824 L77.515528,59.8272217 Z M78.0921247,63.3540373 L77.9514002,62.5293324 L77.0796557,62.5293324 L76.9389312,63.3540373 L76.0248447,63.3540373 L77.002444,58.8819876 L78.0217625,58.8819876 L79.0062112,63.3540373 L78.0921247,63.3540373 Z" id="Fill-10" fill="#FFFFFF" mask="url(#mask-2)"></path>
                <polygon id="Fill-11" fill="#FFFFFF" mask="url(#mask-2)" points="81.242236 63.3540373 81.242236 58.8819876 82.2073144 58.8819876 82.2073144 62.610081 83.4782609 62.610081 83.4782609 63.3540373"></polygon>
                <path d="M91.6770186,59.8272217 L91.3395289,61.7847824 L92.0145083,61.7847824 L91.6770186,59.8272217 Z M92.2536154,63.3540373 L92.1128909,62.5293324 L91.2411463,62.5293324 L91.1004219,63.3540373 L90.1863354,63.3540373 L91.1639347,58.8819876 L92.1832532,58.8819876 L93.1677019,63.3540373 L92.2536154,63.3540373 Z" id="Fill-12" fill="#FFFFFF" mask="url(#mask-2)"></path>
                <path d="M95.4037267,61.1180124 C95.4037267,59.7893683 95.7862115,58.8819876 96.6335143,58.8819876 C97.1806656,58.8819876 97.4865492,59.3422781 97.6163022,59.8995625 L97.0279843,60.1394646 C96.9628473,59.8410218 96.8627968,59.6080069 96.6335143,59.6080069 C96.3390948,59.6080069 96.1629642,60.0809239 96.1629642,61.1180124 C96.1629642,62.1482138 96.3390948,62.6280179 96.6335143,62.6280179 C96.7981808,62.6280179 96.9102165,62.5568508 96.9868177,62.4334562 L96.9868177,61.6494701 L96.5449279,61.6494701 L96.5449279,60.9297639 L97.6397516,60.9297639 L97.6397516,62.7835525 C97.3807666,63.1462752 97.074883,63.3540373 96.6335143,63.3540373 C95.7862115,63.3540373 95.4037267,62.4403433 95.4037267,61.1180124" id="Fill-13" fill="#FFFFFF" mask="url(#mask-2)"></path>
                <polygon id="Fill-14" fill="#FFFFFF" mask="url(#mask-2)" points="101.36646 63.3540373 101.36646 58.8819876 103.602484 58.8819876 103.602484 59.6259438 102.331538 59.6259438 102.331538 60.7059569 103.548907 60.7059569 103.548907 61.4499131 102.331538 61.4499131 102.331538 62.610081 103.602484 62.610081 103.602484 63.3540373"></polygon>
                <polygon id="Fill-15" fill="#FFFFFF" mask="url(#mask-2)" points="108.119522 63.3540373 107.325371 60.9873896 107.325371 63.3540373 106.583851 63.3540373 106.583851 58.8819876 107.325371 58.8819876 108.078356 61.1613554 108.078356 58.8819876 108.819876 58.8819876 108.819876 63.3540373"></polygon>
                <path d="M112.546584,61.1180124 C112.546584,59.8283954 112.918993,58.8819876 113.782709,58.8819876 C114.421723,58.8819876 114.646425,59.439272 114.770562,59.8995625 L114.179212,60.1394646 C114.095931,59.8088819 114.00165,59.6080069 113.782709,59.6080069 C113.428109,59.6080069 113.309734,60.2364585 113.309734,61.1180124 C113.309734,61.9995664 113.428109,62.6280179 113.782709,62.6280179 C114.02522,62.6280179 114.131548,62.3559759 114.184974,61.9995664 L114.782609,62.2388945 C114.669996,62.7318989 114.439008,63.3540373 113.782709,63.3540373 C112.918993,63.3540373 112.546584,62.4013162 112.546584,61.1180124" id="Fill-16" fill="#FFFFFF" mask="url(#mask-2)"></path>
                <polygon id="Fill-17" fill="#FFFFFF" mask="url(#mask-2)" points="118.086982 63.3540373 118.086982 61.5033497 117.018634 58.8819876 117.930829 58.8819876 118.509015 60.6857697 119.101671 58.8819876 120 58.8819876 118.938284 61.5033497 118.938284 63.3540373"></polygon>
                <path d="M43.0577481,53.9688172 C42.4711557,52.3063922 41.843772,50.6565354 41.3134833,48.9764007 C40.6108365,46.747266 39.9610461,44.5009928 39.3336624,42.2495781 C38.9010434,40.6974101 38.5500072,39.1229623 38.1535834,37.5610826 C37.9760545,36.8595507 37.7577341,36.1683018 37.5911212,35.4639135 C37.3647575,34.512161 37.1814833,33.5501253 36.9597158,32.5972302 C36.7097964,31.5232237 36.4328743,30.4555013 36.175486,29.3837799 C35.9571657,28.4777297 35.7595283,27.566538 35.5337391,26.6622017 C35.2022369,25.3351181 34.8632658,24.0108909 34.509357,22.6900914 C34.2669065,21.7868977 34.0405428,20.8762773 33.7239782,19.9970773 C33.3039988,18.8293808 32.9248108,17.6508301 32.5910105,16.4602824 C34.3387224,15.7581792 36.1065428,15.1046348 37.8703415,14.44195 C39.4813159,13.8363931 41.0991846,13.2479747 42.7136062,12.6515583 C44.5480718,11.9740201 46.3819628,11.2976245 48.2147047,10.61723 C49.5079656,10.1373547 50.8006519,9.65747949 52.0904656,9.16846376 C53.8071531,8.5172045 55.5180952,7.85166323 57.2365063,7.20383165 C58.4177343,6.7582332 59.6070057,6.33491468 60.7905319,5.89560031 C60.8991175,5.85503943 60.9904674,5.76877614 61.1180124,5.68594053 C61.0370041,5.36488114 60.9623155,5.08838159 60.8991175,4.80959692 C60.7302065,4.06236261 60.5670408,3.31398573 60.4004279,2.56618014 C60.3952571,2.5416151 60.3757232,2.52047773 60.36136,2.49876909 C60.0781181,2.07773569 59.8741609,1.64013516 59.8454345,1.11227239 C59.8316459,0.851768685 59.6770981,0.576982977 59.5219757,0.351898635 C59.2283923,-0.0725624481 58.7618761,-0.106267972 58.3217883,0.214220141 C58.2258422,0.284487588 58.1224273,0.350756075 58.0126926,0.395315919 C57.126197,0.758078756 56.2425741,1.12712567 55.3491842,1.47160755 C53.4538188,2.2034173 51.5509845,2.91751737 49.65447,3.64589945 C48.4134912,4.12291829 47.1822793,4.62335963 45.9395768,5.09466567 C44.0068671,5.82647543 42.0684121,6.5405755 40.1334043,7.26552989 C38.3730528,7.92535836 36.6172975,8.59718371 34.8534988,9.24787169 C33.6423954,9.6946127 32.4220995,10.1179312 31.2086979,10.5583881 C31.1633102,10.370437 31.1179226,10.1824859 31.073684,9.99396345 C31.021402,9.76945038 30.9495861,9.55007884 30.8973041,9.32556578 C30.6898998,8.43893913 30.4790483,7.55345504 30.2854326,6.66397199 C30.1400772,5.999002 30.0222991,5.32831922 29.8867107,4.66106411 C29.7505477,3.993809 29.6143848,3.32712517 29.4632841,2.66329775 C29.4213436,2.47706045 29.2903514,2.34737988 29.0346868,2.43364316 C28.8077485,2.50962341 28.7353581,2.65644239 28.7807457,2.85924681 C28.8347513,3.09461419 28.8818625,3.3322667 28.9100143,3.5727756 C28.9197813,3.65389737 28.8583069,3.81956858 28.8347513,3.82013986 C28.4314331,3.83213675 28.3297418,4.19604214 28.0574159,4.3434324 C27.7052307,4.53366866 27.6058375,4.8044554 27.5799837,5.12151584 C27.5581517,5.3831621 27.0255649,5.93273352 26.7360032,5.97729336 C26.1264298,6.07155457 25.5157073,6.1566753 24.9061339,6.25093651 C24.8469576,6.26007699 24.7849086,6.30063787 24.7377974,6.33891364 C24.2942624,6.69939135 23.927714,7.07700747 24.0742184,7.65400033 C24.117308,7.82252795 24.0644514,8.02876005 24.0041261,8.20699943 C23.9501205,8.36467272 23.8248736,8.50749274 23.7318002,8.65716811 C23.6795182,8.64974147 23.6278107,8.64288611 23.5755288,8.63545947 C23.6456211,8.99422335 23.7323747,9.3507021 23.7823586,9.71289366 C23.8696867,10.3487284 23.8398113,11.0154122 24.0265326,11.6192552 C24.1793569,12.1105561 24.3511405,12.5955728 24.5212006,13.0811609 C23.4313224,13.4879123 22.3414442,13.8929498 21.2544386,14.3048428 C19.5860115,14.9366785 17.921606,15.5776547 16.2583496,16.2220586 C14.3882634,16.9464417 12.5290932,17.6993889 10.650389,18.4009208 C9.17098134,18.9539199 7.66801803,19.4440782 6.17826885,19.9707984 C5.20444515,20.314709 4.23636672,20.6740441 3.26541565,21.0248101 C2.4696954,21.3127352 1.67225157,21.5966614 0.87768037,21.8880142 C0.727728756,21.9434284 0.584671468,22.0211225 0.444486818,22.0999591 C-0.0128368798,22.3570352 -0.12601875,22.7677855 0.145732643,23.213384 C0.453679254,23.7189668 0.770243773,24.2199794 1.0891064,24.7192782 C1.2936381,25.0397663 1.4832321,25.3739652 1.72453355,25.6647467 C2.03190563,26.0349362 2.19392232,26.5513734 2.72823267,26.7090467 C2.74776659,26.7147595 2.75466092,26.7553203 2.77362032,26.7736013 C2.95402188,26.9455566 3.13959418,27.1123704 3.31539953,27.2888959 C3.39238618,27.3671613 3.52337839,27.5059823 3.50154636,27.5459719 C3.44524269,27.6465172 3.31942122,27.7653435 3.21485726,27.7721988 C2.8322221,27.7967639 2.82877494,28.0218482 2.95172377,28.2617858 C3.08903579,28.5274311 3.03732833,28.6468286 2.75293734,28.7096694 C2.57943011,28.7473739 2.34272488,28.7587995 2.45016148,29.0501523 C2.53461698,29.2803782 2.62481776,29.5277425 2.94827661,29.4449068 C3.46075492,29.314655 3.98529831,29.2083969 4.47307195,29.0141617 C5.12516039,28.753658 5.74737341,28.4188879 6.38222603,28.1166807 C7.88174217,27.4037232 9.37436399,26.6753411 10.8830726,25.9823784 C12.8129096,25.0957518 14.7530882,24.2319763 16.6944158,23.3710573 C18.2795365,22.6683828 19.8749987,21.9919872 21.4606939,21.2910266 C23.2262162,20.5100867 24.9831205,19.7085808 26.7509409,18.9327825 C26.8014993,19.0573216 26.8520577,19.1824319 26.9026161,19.3075422 C27.6856968,21.2464667 28.006283,23.3219272 28.7554665,25.2751337 C29.1495922,26.3034378 29.2794354,27.423718 29.5592301,28.4942968 C29.9435889,29.9659143 30.3624192,31.4289625 30.757694,32.8982948 C31.0570227,34.0088632 31.3437118,35.1228593 31.6338481,36.2362842 C31.8102279,36.9143936 31.9889059,37.5919317 32.1555188,38.2728976 C32.3474109,39.0584077 32.5151729,39.8496305 32.7145338,40.6328555 C32.9322797,41.4903469 33.1730066,42.3426967 33.4051156,43.1973317 C33.9233392,45.1071209 34.4340939,47.0191953 34.962659,48.9266994 C35.3424215,50.2989141 35.774466,51.6557042 35.9853175,53.0724787 C36.1036701,53.8688431 36.3380773,54.6452127 36.5207769,55.4307228 C36.5615684,55.6061058 36.5615684,55.8066251 36.659238,55.9505877 C36.7839104,56.1345399 36.9884421,56.2727896 37.1786106,56.4487439 C37.4015272,56.3396294 37.6118042,56.3447709 37.7686501,56.5904213 C37.8048453,56.6475494 37.9932903,56.6566898 38.1024505,56.6355525 C38.6442297,56.5327221 39.1819872,56.4076117 39.7226173,56.2996398 C40.0799733,56.2276585 40.4562886,56.2150903 40.7964088,56.1002631 C41.5725951,55.8391881 42.3332692,55.5352671 43.0968159,55.2410578 C43.3737381,55.1342285 43.4863454,54.9725562 43.3478843,54.7080536 C43.22551,54.4738287 43.1456507,54.2184665 43.0577481,53.9688172" id="Fill-18" fill="#FFFFFF" mask="url(#mask-2)"></path>
                <path d="M49.4015563,19.6063747 C50.2379682,19.0927331 51.1282312,18.7070734 52.0631792,18.4059732 C52.3765472,18.3048446 52.5782027,18.3665502 52.7689734,18.5808056 C53.0943719,18.9447541 53.2146778,19.3692654 53.1768674,19.8606245 C53.1161416,20.650227 52.8090753,21.3684111 52.3983169,22.000893 C51.7755911,22.9624713 51.1173464,23.9240495 50.3399417,24.7593598 C49.5625369,25.4701164 48.8006001,26.1991561 48.0289242,26.9167689 C48.0111648,26.9333379 48.0008529,26.9504784 47.985385,26.9664761 C47.8507571,27.0818883 47.7178478,27.1990146 47.5820741,27.3132842 C47.4548936,26.1625899 47.3305776,25.0113242 47.184492,23.8629153 C47.0859558,23.0887391 46.9925756,22.3105635 46.6597295,21.5820952 C47.4967142,20.8216313 48.4373911,20.1988623 49.4015563,19.6063747 M68.0455203,46.6665456 C66.9518831,45.2975965 65.8450697,43.9372176 64.7880971,42.5408437 C63.7334162,41.1461839 62.4684865,39.9560666 61.2356383,38.729383 C59.5771367,37.0787595 57.8957197,35.4395629 56.755106,33.3564291 C56.7195872,33.2912954 56.7064108,33.2141635 56.6611529,33.0781827 C56.8484862,33.1107495 57.018633,33.090181 57.1143048,33.1650276 C57.531365,33.4912671 57.9306657,33.8403606 58.3276749,34.1905967 C58.7103619,34.5276919 58.9830551,35.0070526 59.5387534,35.112752 C59.6441642,35.1327491 59.7575954,35.1076098 59.8675893,35.1036104 C59.8555587,34.9916262 59.8813385,34.8533601 59.8251958,34.7728001 C59.6659339,34.5471177 59.4854751,34.334005 59.2918401,34.13689 C57.2139868,32.0154759 55.5451733,29.5923902 54.0046859,27.0710327 C53.9720315,27.0178974 53.9267736,26.9716182 53.8906819,26.9201969 C54.0115606,26.775646 54.1433241,26.6425219 54.257901,26.4905435 C54.5993404,26.0368934 54.9705698,25.6049545 55.3320601,25.1661594 C55.6723537,24.7536464 56.0842579,24.3839844 56.3466391,23.9274776 C56.8628084,23.0276049 57.3600724,22.1077351 57.5239175,21.0553126 C57.5926636,20.6153748 57.8126514,20.1771511 57.7874445,19.7486403 C57.7215627,18.6185145 56.9567615,17.9026158 56.1203496,17.2547075 C54.8130264,16.241708 53.2370203,16.0137402 51.6793464,15.7497776 C50.7421068,15.5915143 49.7997113,15.6303659 48.8647632,15.832623 C47.5562943,16.1160115 46.2650118,16.4531066 45.0820047,17.0958728 C44.2037722,17.5723768 43.3473094,18.0883038 42.4828262,18.5899471 C42.3052319,18.6922184 42.1643022,18.7796346 42.0376947,18.86248 C41.9838435,18.8607659 41.9299923,18.8659081 41.876714,18.8613373 C41.5163695,18.8316272 40.737819,19.1298707 40.6295438,19.472108 C40.489187,19.9154738 40.0388995,20.3114178 40.3637252,20.849056 C40.3877864,20.888479 40.364871,20.954184 40.3700269,21.0073193 C40.4296069,21.6066631 40.4628343,22.211149 40.5567874,22.8053506 C40.7143307,23.8034951 40.9343185,24.7919267 41.0832685,25.7906425 C41.2070117,26.6202394 41.2557069,27.4612632 41.3565346,28.2954309 C41.5026202,29.5078308 41.6807874,30.7168026 41.8177069,31.9309165 C41.946606,33.0736119 41.9993114,34.2260203 42.1585734,35.364145 C42.3579373,36.7845154 42.6472441,38.1923162 42.8695234,39.6098299 C43.0734704,40.9136454 43.2516376,42.2220317 43.4172013,43.5315607 C43.5243308,44.3748699 43.5770362,45.224464 43.6749995,46.0689159 C43.7912951,47.0733452 44.130443,47.3481635 45.0980454,47.1841867 C45.3965184,47.1339081 45.6715032,47.0059262 45.9631015,47.1841867 C45.9906,47.2007558 46.0421596,47.1859007 46.07997,47.1761878 C46.4529181,47.0813441 46.8247203,46.984215 47.1970955,46.8882285 C48.0335073,46.9556476 49.3270813,46.5528474 49.9990752,46.085485 C50.3817623,45.8198083 50.4063963,45.7061101 50.1612016,45.305024 C49.8277826,44.761101 49.6415951,44.1777549 49.6799783,43.5344174 C49.696592,43.2578851 49.746433,42.9790674 49.7303922,42.7042492 C49.6708122,41.6449705 49.6026389,40.5856918 49.5109773,39.5286985 C49.4783229,39.1521804 49.3826511,38.7796616 49.2944268,38.410571 C49.1964635,38.001486 49.0423575,37.6043994 48.9684554,37.1924577 C48.7593524,36.0274797 48.5594156,34.8596449 48.3915603,33.6878107 C48.2867224,32.9547716 48.1984982,32.2188757 48.1016806,31.4846939 C48.5594156,31.2258734 49.0074115,30.9527692 49.4456684,30.6630959 C49.4914992,30.7482267 49.5310283,30.8373569 49.5785777,30.9219164 C49.8621557,31.4298445 50.2454157,31.8812092 50.5501904,32.3788531 C50.8933484,32.9393452 51.1671874,33.5438311 51.5275319,34.0923249 C52.0001619,34.810509 52.5340906,35.4898415 53.0313546,36.1925992 C53.7033485,37.1421791 54.342688,38.1163269 55.0387431,39.0487664 C55.959369,40.2828775 56.9481682,41.4672813 57.8573364,42.710534 C58.6811448,43.8372317 59.4081357,45.0353479 60.2330898,46.1620456 C60.8827412,47.0482059 61.6263457,47.8652332 62.3097974,48.7268255 C63.5168657,50.2477532 64.709039,51.7806791 65.9115243,53.3056062 C66.017508,53.4404443 66.1372409,53.589566 66.2850452,53.656985 C66.3675406,53.694694 66.624193,53.5827098 66.6264846,53.5307172 C66.6413796,53.1976215 66.6786171,52.8371011 66.5709147,52.5342868 C66.445453,52.1817652 66.4907109,51.9526548 66.7725702,51.7395421 C67.002297,51.5664237 67.087084,51.3578818 67.0544295,51.0504967 C67.0143276,50.6774067 67.0601584,50.3026025 67.425086,50.0414966 C67.5287782,49.9672214 67.6061176,49.7666784 67.5917955,49.6352684 C67.5402359,49.1759048 67.6565315,48.8685198 68.0861951,48.6856885 C68.3428475,48.5771324 68.3961258,48.4182978 68.4144581,48.1709042 C68.4390922,47.8378085 68.5158587,47.5087122 68.5714286,47.1704743 C68.4070106,47.0144964 68.2007721,46.8608039 68.0455203,46.6665456" id="Fill-19" fill="#FFFFFF" mask="url(#mask-2)"></path>
                <path d="M69.0127386,34.1080782 C68.965853,33.5778763 68.9421278,33.0442721 68.8698223,32.5174726 C68.7800053,31.8676209 68.6404783,31.2245739 68.5399285,30.5758564 C68.3552106,29.3838945 68.1896988,28.1896645 68.004416,26.9982697 C67.8462478,25.9854991 67.666049,24.9761308 67.5039265,23.9639273 C67.327117,22.8621281 67.1791167,21.7552254 66.9831011,20.6568286 C66.7221235,19.1943787 66.4334664,17.7370324 66.1431147,16.2802532 C66.0645955,15.8872801 66.0233588,15.4597162 65.6578772,15.2550073 C65.3839072,15.2776897 65.1771587,15.3394993 64.9901812,15.3020733 C64.4326381,15.1914964 63.8818737,15.0406583 63.32772,14.9102343 C63.2847886,14.9000272 63.2237809,14.9136366 63.188193,14.9397214 C62.5848941,15.37409 61.9002516,15.1262844 61.2591053,15.1359245 C60.7620051,15.1432963 60.3468135,15.4013089 60.373928,15.9127978 C60.3880502,16.1742128 60.4270274,16.436762 60.4812565,16.6936405 C60.6151346,17.3236451 60.782341,17.9468449 60.9032268,18.5796848 C61.106021,19.6383874 61.2867848,20.7016264 61.469808,21.7637313 C61.6104648,22.5797318 61.7443429,23.3962994 61.873137,24.2140011 C62.0533358,25.3543604 62.2222369,26.4969879 62.4024358,27.6373472 C62.5334894,28.4675243 62.6927875,29.2931648 62.8085892,30.125043 C62.9351238,31.0300721 63.0458416,31.9390706 63.1271852,32.8492032 C63.2537198,34.2725258 63.3542697,35.6975497 63.4542546,37.1225735 C63.4791096,37.4781206 63.407369,37.8478443 63.4757203,38.1914831 C63.5435067,38.5339879 63.357659,38.9893377 63.7643773,39.2025526 C64.0609428,39.3579272 64.4055236,39.4951559 64.7314632,39.5013936 C65.3686552,39.514436 66.0098015,39.4509252 66.644734,39.3800426 C67.1367502,39.3250377 67.631026,39.2416798 68.1072254,39.1101217 C68.4190428,39.0244955 68.7935626,38.9020103 68.9743263,38.6678142 C69.2658078,38.2878835 69.3584492,37.8013453 69.3002659,37.2864541 C69.179945,36.2300198 69.10538,35.1679149 69.0127386,34.1080782" id="Fill-20" fill="#FFFFFF" mask="url(#mask-2)"></path>
                <path d="M118.478252,35.6335456 C118.049099,35.3951649 117.611442,35.16246 117.153944,34.9870799 C116.793955,34.8497273 116.39825,34.808862 116.025221,34.7015907 C115.32225,34.4989672 114.661797,34.3218844 113.931614,34.7430235 C113.291003,35.1130811 112.552316,35.3157047 111.85388,35.5835992 C110.918474,35.9423053 109.983069,36.3021466 109.04086,36.643258 C107.950688,37.0382888 106.847476,37.3969949 105.761272,37.8016745 C104.955123,38.1019206 104.182421,38.497519 103.366634,38.7665486 C101.815562,39.2773643 100.318346,39.9164515 98.8330353,40.5827822 C98.8313346,40.5759714 98.8302007,40.5697281 98.8290669,40.5629172 C98.5994674,39.4152846 98.3579627,38.2704898 98.1453705,37.1200193 C98.0093116,36.3850123 97.9174717,35.6414916 97.8040893,34.9025116 C97.6532906,33.9200427 97.4809492,32.9409792 97.3573623,31.9551049 C97.300671,31.5004789 97.3845741,31.0271231 97.3222137,30.5741998 C97.27516,30.2353587 97.2116658,29.8987879 97.1504392,29.561082 C97.7190524,29.4157833 98.2853979,29.2636737 98.8438066,29.0854558 C99.5218339,28.8692105 100.148272,28.4974502 100.813827,28.2335287 C101.498091,27.9622288 102.211266,27.7630107 102.892128,27.4848999 C103.529338,27.2243839 104.150107,26.9195972 104.75727,26.5949454 C104.920541,26.5075392 105.017483,26.2833479 105.12633,26.1096705 C105.179053,26.0251021 105.15751,25.8820737 105.222138,25.8190731 C105.536775,25.510881 105.309443,25.2900951 105.077576,25.1584182 C104.484585,24.8201446 103.877989,24.4983307 103.250417,24.2327066 C102.811627,24.0465426 102.334286,23.9421092 101.866017,23.8410812 C101.254318,23.7082691 100.654525,23.7519722 100.075707,24.0363263 C99.5960994,24.2718691 99.106854,24.4920874 98.6074042,24.6799541 C97.935046,24.9330917 97.2604202,25.1794184 96.5869283,25.4291505 C96.5534805,25.0982554 96.5211664,24.7673604 96.484884,24.4370329 C96.3856744,23.5164294 96.297236,22.5941233 96.1781844,21.6757902 C96.0857777,20.9617833 95.9633246,20.2517495 95.8363362,19.5428508 C95.6452867,18.4741108 95.4434659,17.406506 95.235976,16.3406039 C95.1662458,15.9818978 95.0846104,15.6254619 95.0058095,15.2684585 C95.0925471,15.2440528 95.1792847,15.2292959 95.2665892,15.1929713 C96.4145869,14.7173451 97.611339,14.3523956 98.802422,13.9902841 C99.9770646,13.6327131 101.168714,13.3301967 102.355829,13.0134909 C103.465844,12.7172178 104.582094,12.4419449 105.689274,12.1343203 C105.863316,12.0860766 106.050397,11.9441834 106.138269,11.7915062 C106.177386,11.723965 106.018083,11.4770708 105.894496,11.3902321 C105.47158,11.0916887 105.03279,10.8124428 104.583228,10.5558998 C104.095116,10.277789 103.590564,10.0280569 103.087713,9.7777572 C102.974897,9.72156747 102.828634,9.67275619 102.71185,9.69489154 C101.838805,9.85721742 100.960091,10.0036513 100.100651,10.2221669 C98.7678404,10.5604404 97.4480683,10.9509306 96.1237608,11.3221234 C95.281329,11.5582337 94.4383302,11.7954792 93.5953314,12.0321572 C93.4530364,12.0128597 93.287498,12.0338599 93.0873779,12.1206986 C93.0046087,12.1570232 92.8827225,12.0968605 92.7784106,12.0906172 C92.2704571,12.0565628 91.7585352,11.9742647 91.2539831,12.0066164 C90.5498779,12.0520222 89.8531425,12.2018615 89.1496042,12.2728081 C88.5894947,12.3289979 88.4466328,12.4811074 88.5770226,13.0322208 C88.6297455,13.2575473 88.5928962,13.3818458 88.3661312,13.4925225 C88.1302957,13.6066047 87.908066,14.0788255 87.9573874,14.3393415 C87.9562535,14.3478551 87.9517182,14.3558011 87.9511513,14.3637471 C87.9347109,14.5572895 88.1626097,14.8263191 88.3513915,14.9682124 C88.5214652,15.0959163 88.7726074,15.1452951 88.9976717,15.1651602 C89.0742048,15.2406474 89.1286284,15.3354321 89.1581079,15.4654063 C89.3145757,16.1425209 89.506759,16.8128246 89.6258106,17.4961825 C89.8423712,18.7346268 90.031153,19.9781793 90.2040613,21.2234345 C90.4296925,22.8478284 90.6247103,24.476763 90.8395701,26.1028596 C90.9688262,27.0790852 91.1167903,28.0524729 91.2466133,29.0275634 C91.3815384,30.0423839 91.5079599,31.057772 91.6332475,32.0737277 C91.7432285,32.9648173 91.8407375,33.8576097 91.95412,34.7481317 C92.0731716,35.679519 92.1973254,36.6103387 92.3316836,37.5394558 C92.4649081,38.4560862 92.6253443,39.3693111 92.7528996,40.2865091 C92.8844232,41.2377615 93.0006403,42.1969599 93.1315971,43.2435645 C92.672398,43.492729 92.3883749,43.8213538 92.3027711,44.4150352 C92.1627437,45.3838823 92.2080967,45.533154 93.1372662,45.8061566 C93.6990764,45.9707528 94.2773271,46.1081055 94.8572785,46.1750791 C95.3901762,46.236377 95.9372466,46.2074307 96.4758134,46.1773494 C96.7989535,46.1597546 97.1169914,46.0632672 97.4372969,46.0025369 C97.443533,46.0252398 97.4492021,46.0485103 97.4554381,46.0712132 C97.5971662,46.0320507 97.7576024,46.0224019 97.8783548,45.9480499 C98.1538742,45.7794807 98.414087,45.5848032 98.6737329,45.3912608 C99.1403018,45.0444737 99.6091384,44.6999568 100.062101,44.3361425 C100.391478,44.0716535 100.665296,43.7260016 101.019617,43.5063508 C101.801956,43.022211 102.616042,42.5874501 103.423892,42.1453107 C103.992505,41.8337131 104.558284,41.5113317 105.15014,41.2508157 C105.909236,40.9176503 106.697811,40.6520261 107.464844,40.3370231 C108.452405,39.9312084 109.423526,39.4839609 110.417324,39.0934707 C111.852746,38.5287355 113.296672,37.9827303 114.747968,37.4605631 C115.52974,37.1796145 116.347228,36.9962884 117.126165,36.7090964 C117.592734,36.5365543 118.024722,36.2612813 118.453307,36.0007653 C118.517368,35.9621704 118.527573,35.6607891 118.478252,35.6335456" id="Fill-21" fill="#FFFFFF" mask="url(#mask-2)"></path>
                <path d="M81.0428696,17.8917221 C81.4455198,17.8600136 81.6053375,18.0514176 81.6454331,18.4515211 C81.7222359,19.2021475 81.3670228,19.7798185 80.9254064,20.2986847 C80.0303145,21.3502535 79.0335717,22.2888248 77.8425629,22.9921768 C77.7747957,23.0319565 77.7087227,23.0734658 77.6415202,23.1138221 C77.5071152,22.4894531 77.3704513,21.8662371 77.2439525,21.2401386 C77.0722756,20.3915041 76.9085048,19.5411401 76.7441693,18.690776 C78.1271852,18.1857463 79.5796625,18.0076022 81.0428696,17.8917221 M84.3312737,23.8033376 C84.9801448,23.3086851 85.5838377,22.7581105 86.0429606,22.0345804 C86.48853,21.332958 87.174673,20.7714295 87.2300163,19.842659 C87.255429,19.4085409 87.375151,18.9773055 87.3762805,18.544917 C87.3779747,17.7349092 87.0803637,17.0125321 86.4783649,16.4907834 C86.0683733,16.1356483 85.564637,15.8912047 85.0959137,15.6104404 C84.5854007,15.3054624 84.0827939,14.9797297 83.5479976,14.7266383 C82.8612899,14.4020587 82.1565108,14.1080345 81.4393078,13.8618613 C80.8446505,13.657774 80.2206274,13.4116008 79.6107225,13.4162129 C78.4869162,13.4242842 77.3619804,13.5845562 76.2409978,13.7136962 C76.0845684,13.7321448 75.9292686,13.7528994 75.773404,13.7730776 C75.6915186,13.6191472 75.5486427,13.6416314 75.1392158,13.6860233 C73.3162777,13.883769 71.7418195,14.6655274 70.3012014,15.7787836 C70.0922525,15.9407852 70.0719224,16.14199 70.062322,16.4043057 C70.0606278,16.4486975 70.0696634,16.4890538 70.0719224,16.5322927 C70.0611925,16.6533614 70.0640162,16.784231 70.0973351,16.9393144 C70.1651023,17.2506341 70.2306106,17.5504234 70.3881694,17.7948671 C70.5174918,18.3834919 70.622531,18.9773055 70.7439472,19.5676599 C70.955155,20.5932854 71.1810458,21.6160283 71.380959,22.6439599 C71.6006378,23.7716291 71.7999863,24.9039104 72.0038527,26.0344622 C72.0066763,26.0500282 72.007241,26.0667472 72.0100647,26.0828897 C72.007241,26.0903844 71.9998996,26.1007618 72.0015938,26.1053739 C72.0145825,26.138812 72.0185356,26.1699439 72.025877,26.2022289 C72.0315243,26.2714111 72.0309596,26.3394402 72.0145825,26.4022807 C71.9400386,26.6836215 71.784174,26.9522788 71.7615849,27.2347727 C71.7565024,27.3022253 71.7666674,27.3863969 71.7830445,27.4705685 C71.7869976,27.6521717 71.8045041,27.8631773 71.9055902,27.9588793 C72.100421,28.1439415 72.3099346,28.302484 72.5290486,28.4402718 C72.573662,28.5780596 72.6030278,28.7262247 72.6335231,28.8761194 C72.6815248,29.1090326 72.7182321,29.3448285 72.7780931,29.5742827 C73.2880414,31.5252196 73.7957308,33.476733 74.3271387,35.4213281 C74.3689285,35.5729524 74.5603708,35.7389896 74.7168002,35.7914527 C75.858113,36.1777197 77.0304858,36.1021959 78.1994702,35.9649846 C78.4400439,35.9367352 78.6727113,35.834115 78.9087671,35.7655094 C78.917238,35.7960648 78.9257089,35.8260438 78.9347445,35.8560227 C79.258333,35.7585912 79.6039458,35.704975 79.9015568,35.5533508 C80.3539029,35.3227436 80.5899587,34.9393591 80.6379605,34.3870549 C80.6820092,33.8676122 80.326796,33.5632107 80.1805318,33.1521533 C79.8388721,32.1922509 79.493824,31.2294658 79.2289672,30.2459261 C78.9923467,29.3661597 78.8042926,28.4725568 78.6145444,27.5795304 C78.7777505,27.4757572 78.9409565,27.3714074 79.1120687,27.2814706 C79.1408698,27.2659046 79.1724945,27.2537977 79.2018603,27.2393848 C79.2882635,27.2169006 79.3825729,27.1834626 79.493824,27.1321525 C79.549732,27.1067857 79.6011221,27.0675824 79.6525123,27.0295323 C79.75021,26.9862934 79.841131,26.9315242 79.9365698,26.8842497 C80.2674997,26.7897008 80.614242,26.6547956 80.936701,26.6928457 C81.5048161,26.7608749 81.9966931,26.6190514 82.4608986,26.3423228 C82.8624193,26.1030678 83.2978237,25.8707311 83.733228,26.0062128 C85.9260621,26.6876571 86.7629872,28.5861308 86.3422658,30.6979162 C86.0903976,31.9616437 85.4387029,33.0339671 84.6215432,33.99214 C83.4672417,35.3458043 82.0644604,36.362782 80.3928691,36.9323818 C79.9676298,37.0776643 79.4751881,37.3515104 78.9872641,36.9738911 C78.8940842,36.9018263 78.6653698,36.9093211 78.5569423,36.9773502 C77.9165421,37.3763006 77.1660202,37.6951151 77.1615024,38.6498289 C77.160373,38.9767146 77.0875232,39.3289671 77.1823973,39.6247208 C77.3201906,40.0530737 77.7522066,40.1995093 78.1497743,40.2254526 C78.9268383,40.2756096 79.6971257,40.2490898 80.4781428,40.0922769 C81.6544687,39.856481 82.7873106,39.5313249 83.8732803,39.0141883 C85.0631596,38.4480476 86.1491292,37.7193289 87.1193298,36.8251494 C87.7049515,36.2849521 88.3221979,35.7338009 88.7474371,35.0696522 C89.4810172,33.9241109 90.0112957,32.6799851 90.1423123,31.2652099 C90.3439198,29.0917371 89.8740671,27.1996051 88.2967852,25.6441595 C87.1797556,24.5424336 85.7786684,24.0875609 84.3312737,23.8033376" id="Fill-22" fill="#FFFFFF" mask="url(#mask-2)"></path>
            </g>
        </g>
    </g>
</svg>