<?xml version="1.0" encoding="UTF-8" standalone="no"?>
<svg width="200px" height="106px" viewBox="0 0 200 106" version="1.1" xmlns="http://www.w3.org/2000/svg" xmlns:xlink="http://www.w3.org/1999/xlink">
    <!-- Generator: Sketch 46 (44423) - http://www.bohemiancoding.com/sketch -->
    <title>Logo Tribe</title>
    <desc>Created with Sketch.</desc>
    <defs>
        <polygon id="path-1" points="0 105.541126 200 105.541126 200 0 0 0"></polygon>
    </defs>
    <g id="1-Home" stroke="none" stroke-width="1" fill="none" fill-rule="evenodd">
        <g id="1-Home_Desktop" transform="translate(-540.000000, -48.000000)">
            <g id="Logo-Tribe" transform="translate(540.000000, 48.000000)">
                <path d="M196.278618,89.1043929 L124.932553,89.1043929 C124.601873,89.1043929 122.943723,88.9103986 122.943723,88.6718473 C122.943723,88.433296 124.601873,88.2393017 124.932553,88.2393017 L196.278618,88.2393017 C196.610248,88.2393017 198.268398,88.433296 198.268398,88.6718473 C198.268398,88.9103986 196.610248,89.1043929 196.278618,89.1043929 Z" id="Fill-1" fill="#33FFFF"></path>
                <path d="M88.6220734,101.220724 C88.6220734,99.6952411 88.2699395,98.9058497 87.5432364,98.9058497 L87.1023374,98.9058497 L87.1023374,103.524571 L87.5432364,103.524571 C88.2806693,103.524571 88.6220734,102.693826 88.6220734,101.220724 L88.6220734,101.220724 Z M85.7142857,104.676034 L85.7142857,97.7553048 L87.5432364,97.7553048 C89.3156115,97.7553048 90.04329,99.2486238 90.04329,101.220724 C90.04329,103.213041 89.3273168,104.676034 87.5539662,104.676034 L85.7142857,104.676034 Z" id="Fill-3" fill="#33FFFF"></path>
                <mask id="mask-2" fill="white">
                    <use xlink:href="#path-1"></use>
                </mask>
                <g id="Clip-6"></g>
                <polygon id="Fill-5" fill="#33FFFF" mask="url(#mask-2)" points="95.2380952 104.676034 96.969697 104.676034 96.969697 97.7553048 95.2380952 97.7553048"></polygon>
                <path d="M102.164502,101.648215 C102.164502,99.335051 102.905003,97.7553048 104.545404,97.7553048 C105.604704,97.7553048 106.196903,98.5566688 106.448108,99.5268988 L105.309109,99.9445673 C105.183002,99.4249797 104.989301,99.0193016 104.545404,99.0193016 C103.9754,99.0193016 103.634406,99.8426482 103.634406,101.648215 C103.634406,103.441792 103.9754,104.277129 104.545404,104.277129 C104.864203,104.277129 105.081107,104.153227 105.229409,103.938398 L105.229409,102.573481 L104.373898,102.573481 L104.373898,101.320475 L106.493506,101.320475 L106.493506,104.547914 C105.992105,105.179413 105.399906,105.541126 104.545404,105.541126 C102.905003,105.541126 102.164502,103.950388 102.164502,101.648215" id="Fill-7" fill="#33FFFF" mask="url(#mask-2)"></path>
                <polygon id="Fill-8" fill="#33FFFF" mask="url(#mask-2)" points="111.688312 104.676034 113.419913 104.676034 113.419913 97.7553048 111.688312 97.7553048"></polygon>
                <polygon id="Fill-9" fill="#33FFFF" mask="url(#mask-2)" points="118.815741 104.676034 118.815741 98.9066158 117.748918 98.9066158 117.748918 97.7553048 121.212121 97.7553048 121.212121 98.9066158 120.146232 98.9066158 120.146232 104.676034"></polygon>
                <path d="M127.705628,99.2181037 L127.215586,102.247531 L128.19567,102.247531 L127.705628,99.2181037 Z M128.542858,104.676034 L128.338523,103.399761 L127.072732,103.399761 L126.868398,104.676034 L125.541126,104.676034 L126.960619,97.7553048 L128.44069,97.7553048 L129.87013,104.676034 L128.542858,104.676034 Z" id="Fill-10" fill="#33FFFF" mask="url(#mask-2)"></path>
                <polygon id="Fill-11" fill="#33FFFF" mask="url(#mask-2)" points="135.930736 104.676034 135.930736 97.7553048 137.42547 97.7553048 137.42547 103.524723 139.393939 103.524723 139.393939 104.676034"></polygon>
                <path d="M151.948052,99.2181037 L151.45801,102.247531 L152.438094,102.247531 L151.948052,99.2181037 Z M152.785282,104.676034 L152.580947,103.399761 L151.315157,103.399761 L151.110822,104.676034 L149.78355,104.676034 L151.203044,97.7553048 L152.683115,97.7553048 L154.112554,104.676034 L152.785282,104.676034 Z" id="Fill-12" fill="#33FFFF" mask="url(#mask-2)"></path>
                <path d="M159.307359,101.648215 C159.307359,99.335051 160.04786,97.7553048 161.688261,97.7553048 C162.747561,97.7553048 163.33976,98.5566688 163.590965,99.5268988 L162.451966,99.9445673 C162.325859,99.4249797 162.132158,99.0193016 161.688261,99.0193016 C161.118257,99.0193016 160.777264,99.8426482 160.777264,101.648215 C160.777264,103.441792 161.118257,104.277129 161.688261,104.277129 C162.00706,104.277129 162.223964,104.153227 162.372266,103.938398 L162.372266,102.573481 L161.516756,102.573481 L161.516756,101.320475 L163.636364,101.320475 L163.636364,104.547914 C163.134962,105.179413 162.542763,105.541126 161.688261,105.541126 C160.04786,105.541126 159.307359,103.950388 159.307359,101.648215" id="Fill-13" fill="#33FFFF" mask="url(#mask-2)"></path>
                <polygon id="Fill-14" fill="#33FFFF" mask="url(#mask-2)" points="168.831169 104.676034 168.831169 97.7553048 172.294372 97.7553048 172.294372 98.9066158 170.325903 98.9066158 170.325903 100.577992 172.21139 100.577992 172.21139 101.729303 170.325903 101.729303 170.325903 103.524723 172.294372 103.524723 172.294372 104.676034"></polygon>
                <polygon id="Fill-15" fill="#33FFFF" mask="url(#mask-2)" points="180.462278 104.676034 178.924781 101.013524 178.924781 104.676034 177.489177 104.676034 177.489177 97.7553048 178.924781 97.7553048 180.382579 101.282745 180.382579 97.7553048 181.818182 97.7553048 181.818182 104.676034"></polygon>
                <path d="M187.012987,101.648215 C187.012987,99.4029971 187.733981,97.7553048 189.406159,97.7553048 C190.643307,97.7553048 191.078337,98.7255348 191.318668,99.5268988 L190.173799,99.9445673 C190.012564,99.3690241 189.830034,99.0193016 189.406159,99.0193016 C188.719643,99.0193016 188.490466,100.113433 188.490466,101.648215 C188.490466,103.182997 188.719643,104.277129 189.406159,104.277129 C189.875667,104.277129 190.08152,103.803505 190.184954,103.182997 L191.341991,103.599666 C191.123969,104.457985 190.676771,105.541126 189.406159,105.541126 C187.733981,105.541126 187.012987,103.882442 187.012987,101.648215" id="Fill-16" fill="#33FFFF" mask="url(#mask-2)"></path>
                <polygon id="Fill-17" fill="#33FFFF" mask="url(#mask-2)" points="197.222259 104.676034 197.222259 101.811999 195.670996 97.7553048 196.995522 97.7553048 197.83506 100.546751 198.695608 97.7553048 200 97.7553048 198.458367 101.811999 198.458367 104.676034"></polygon>
                <path d="M71.3651146,89.8384657 C70.3928801,87.0711323 69.3530367,84.3247204 68.4741215,81.5279068 C67.309535,77.8172076 66.2325543,74.0779791 65.1927109,70.3301919 C64.4756761,67.7463965 63.8938589,65.125513 63.236815,62.525551 C62.9425737,61.3577554 62.5807234,60.2070772 62.3045745,59.0345267 C61.9293929,57.4502046 61.6256292,55.8487649 61.2580655,54.2625409 C60.8438421,52.4747104 60.3848637,50.6973406 59.9582612,48.913314 C59.596411,47.4050698 59.2688413,45.8882668 58.8946119,44.3828755 C58.3451709,42.1737636 57.7833507,39.9694067 57.1967724,37.7707556 C56.7949282,36.2672662 56.4197466,34.7514142 55.8950637,33.2878657 C55.1989781,31.3440755 54.5705013,29.3822169 54.0172513,27.4003878 C56.9139579,26.2316411 59.8439927,25.1437272 62.7673619,24.0405978 C65.437436,23.0325657 68.1189369,22.0530628 70.7947243,21.0602463 C73.8352187,19.9323916 76.8747609,18.8064387 79.9123986,17.6738291 C82.0558853,16.8750112 84.1984198,16.0761934 86.336193,15.2621599 C89.1814787,14.1780499 92.0172421,13.0701656 94.8653846,11.9917615 C96.8231849,11.250002 98.7943166,10.5453305 100.755926,9.81403177 C100.935899,9.74651264 101.087305,9.60291562 101.298701,9.46502444 C101.164436,8.93057724 101.040645,8.47030598 100.935899,8.00623084 C100.655941,6.76235728 100.385506,5.51658178 100.109357,4.27175725 C100.100786,4.23086539 100.06841,4.19567936 100.044604,4.15954236 C99.5751514,3.45867477 99.237107,2.73022894 99.1894952,1.85152928 C99.1666415,1.41788529 98.9104896,0.960466953 98.6533854,0.585783329 C98.1667921,-0.120790103 97.3935752,-0.17689755 96.6641612,0.356598676 C96.5051376,0.473568437 96.3337348,0.583881382 96.1518575,0.658057328 C94.682555,1.26192561 93.2180136,1.87625459 91.7372843,2.44969171 C88.5958527,3.66788898 85.442042,4.85660606 82.2987059,6.06909748 C80.2418728,6.86316049 78.2012278,7.69621342 76.141538,8.48076669 C72.938211,9.69896396 69.7253616,10.887681 66.5182256,12.0944666 C63.6005698,13.1928412 60.6905319,14.3111862 57.7671627,15.3943452 C55.759846,16.1380066 53.7372935,16.8426781 51.7261678,17.5758788 C51.650941,17.2630085 51.5757143,16.9501382 51.502392,16.6363168 C51.4157384,16.2625842 51.2967087,15.8974103 51.2100551,15.5236777 C50.8662973,14.0477665 50.5168261,12.5737573 50.1959221,11.0930914 C49.955006,9.98615801 49.7597973,8.86971492 49.5350693,7.75897768 C49.309389,6.64824044 49.0837087,5.53845418 48.8332702,4.43342278 C48.7637569,4.12340536 48.5466467,3.90753434 48.122901,4.05113136 C47.7467672,4.17761086 47.6267852,4.42201109 47.702012,4.75960674 C47.7915223,5.15140789 47.8696058,5.54701294 47.9162655,5.94737285 C47.9324535,6.08241111 47.8305641,6.35819347 47.7915223,6.35914445 C47.1230516,6.3791149 46.9545056,6.98488512 46.503145,7.23023632 C45.9194234,7.54691056 45.7546863,7.99767207 45.7118356,8.52546246 C45.6756505,8.96100839 44.7929264,9.87584506 44.3129986,9.95002101 C43.3026746,10.1069317 42.2904461,10.2486267 41.2801221,10.4055374 C41.1820417,10.420753 41.0792,10.4882721 41.0011165,10.5519873 C40.2659892,11.1520517 39.6584616,11.7806453 39.9012822,12.7411287 C39.9727,13.0216659 39.8850941,13.3649674 39.7851092,13.6616712 C39.6955989,13.92414 39.4880111,14.1618834 39.3337486,14.4110385 C39.247095,14.3986758 39.1613936,14.3872641 39.07474,14.3749015 C39.190913,14.9721129 39.3347008,15.5655205 39.4175455,16.1684378 C39.5622856,17.2268715 39.5127693,18.3366578 39.8222465,19.3418369 C40.0755416,20.1596743 40.3602607,20.9670509 40.642123,21.7753785 C38.8357284,22.4524718 37.0293338,23.1267121 35.2277004,23.8123641 C32.4624026,24.864141 29.7037705,25.9311334 26.9470428,27.0038317 C23.8475097,28.2096663 20.766069,29.4630496 17.6522523,30.6308453 C15.2002407,31.5513878 12.7091873,32.3673232 10.2400354,33.2441209 C8.62599279,33.8166071 7.02147256,34.4147695 5.41219113,34.9986673 C4.09334216,35.4779581 2.77163647,35.950592 1.45469197,36.4355885 C1.20615797,36.527833 0.969050826,36.6571654 0.736704869,36.7883998 C-0.0212762032,37.2163379 -0.208866996,37.900088 0.241541355,38.6418474 C0.75194067,39.4834591 1.27662355,40.317463 1.80511538,41.148614 C2.14411194,41.6821103 2.45835032,42.2384298 2.85829008,42.7224754 C3.36773716,43.3387064 3.63626814,44.1983866 4.52184905,44.4608553 C4.55422512,44.470365 4.56565197,44.5378842 4.59707581,44.5683153 C4.89607839,44.8545584 5.20365112,45.1322427 5.4950358,45.4260936 C5.62263563,45.556377 5.83974578,45.7874636 5.80356076,45.8540317 C5.71024148,46.0214031 5.50170146,46.2192056 5.32839423,46.2306173 C4.69420404,46.2715092 4.68849061,46.6461928 4.89226944,47.0456017 C5.11985421,47.4878045 5.03415284,47.686558 4.56279526,47.7911651 C4.27521953,47.8539293 3.88289766,47.8729488 4.06096608,48.3579454 C4.200945,48.7411878 4.35044629,49.1529594 4.88655602,49.0150682 C5.73595189,48.7982462 6.60534476,48.6213651 7.41379442,48.298034 C8.49458401,47.86439 9.52585726,47.3071195 10.5780797,46.8040544 C13.0634197,45.6172393 15.5373328,44.4047479 18.0379085,43.2512168 C21.2364744,41.7753057 24.4521805,40.3374335 27.6697911,38.9043162 C30.2970145,37.7346186 32.9413781,36.6086657 35.5695537,35.4418211 C38.4957796,34.1418401 41.4077219,32.807624 44.3377568,31.5162018 C44.4215537,31.723514 44.5053506,31.9317773 44.5891475,32.1400405 C45.8870473,35.3676451 46.4183958,38.8225324 47.6601136,42.0739114 C48.3133485,43.785664 48.5285542,45.6505234 48.9922939,47.432648 C49.6293408,49.8823562 50.3235219,52.3177997 50.9786613,54.763704 C51.4747771,56.6123968 51.9499436,58.4667954 52.4308236,60.3202431 C52.7231605,61.4490488 53.0193064,62.5769036 53.2954553,63.7104642 C53.6135026,65.018053 53.8915559,66.3351515 54.2219824,67.6389364 C54.5828804,69.0663479 54.9818679,70.4852006 55.3665719,71.9078572 C56.2254901,75.0869622 57.0720293,78.269871 57.9480878,81.4451721 C58.5775168,83.7294108 59.2935994,85.9879733 59.6430706,88.346388 C59.8392315,89.6720453 60.2277445,90.9644185 60.530556,92.2720073 C60.5981649,92.5639562 60.5981649,92.8977479 60.7600452,93.1373933 C60.9666808,93.4436068 61.3056773,93.6737424 61.620868,93.9666423 C61.9903361,93.7850064 62.3388551,93.7935651 62.5988159,94.2024838 C62.6588069,94.2975812 62.9711408,94.3127968 63.1520659,94.2776107 C64.0500259,94.1064355 64.9413202,93.8981722 65.8373757,93.7184382 C66.4296675,93.5986155 67.0533831,93.5776941 67.6171077,93.3865484 C68.9035806,92.9519534 70.1643431,92.4460354 71.4298667,91.956284 C71.8888452,91.7784519 72.0754838,91.5093264 71.8459945,91.0690256 C71.643168,90.6791264 71.5108069,90.2540412 71.3651146,89.8384657" id="Fill-18" fill="#33FFFF" mask="url(#mask-2)"></path>
                <path d="M81.7758659,32.5220181 C83.1565458,31.6686834 84.6261187,31.0279705 86.169454,30.5277398 C86.6867361,30.3597307 87.0196123,30.4622447 87.3345208,30.8181963 C87.871662,31.4228395 88.070253,32.1280983 88.0078387,32.944414 C87.9075975,34.2562144 87.4007178,35.4493642 86.7226716,36.5001334 C85.6947271,38.0976443 84.608151,39.6951551 83.3248752,41.0828919 C82.0415995,42.263702 80.7838569,43.4748868 79.5100379,44.6670874 C79.4807221,44.6946143 79.4637,44.7230904 79.4381669,44.7496682 C79.2159341,44.9414074 78.9965384,45.1359943 78.7724144,45.3258352 C78.5624754,43.4141377 78.3572647,41.501491 78.1161186,39.5935903 C77.9534632,38.3074184 77.7993188,37.0146021 77.2498838,35.8043666 C78.6315094,34.5409757 80.1843014,33.506343 81.7758659,32.5220181 M112.551787,77.4782331 C110.746501,75.2039396 108.919464,72.9438841 107.174701,70.6240287 C105.433721,68.307021 103.345679,66.3298284 101.310595,64.2918867 C98.5728766,61.5496354 95.7973318,58.8263682 93.9145006,55.3655693 C93.855869,55.25736 93.8341185,55.1292174 93.7594105,54.9033068 C94.068645,54.9574114 94.3495093,54.9232401 94.5074364,55.0475858 C95.195885,55.5895815 95.8550178,56.1695453 96.5103679,56.7514076 C97.1420762,57.3114381 97.5922156,58.1078206 98.5095166,58.2834234 C98.6835201,58.3166455 98.870763,58.2748805 99.0523319,58.2682361 C99.0324728,58.082192 99.075028,57.8524846 98.9823522,57.7186468 C98.7194556,57.3437111 98.4215692,56.9896579 98.1019324,56.6621824 C94.6719832,53.1377867 91.9172432,49.1122112 89.3743335,44.9233725 C89.3204302,44.8350965 89.2457222,44.758211 89.1861449,44.6727826 C89.3856815,44.4326339 89.6031859,44.2114693 89.7923201,43.958981 C90.3559401,43.2053127 90.968735,42.4877143 91.5654535,41.7587253 C92.1271821,41.0733998 92.8071197,40.4592646 93.2402371,39.7008504 C94.0922868,38.2058536 94.9131293,36.6776346 95.1835913,34.9292003 C95.2970718,34.1983129 95.6602095,33.4702732 95.6186,32.75837 C95.5098478,30.8808438 94.2473768,29.6914908 92.866697,28.6150931 C90.7086754,26.9321538 88.1071342,26.5534213 85.5358543,26.1148889 C83.9887364,25.8519593 82.4331073,25.9165052 80.889772,26.2525236 C78.7298592,26.7233289 76.5983164,27.2833594 74.6455055,28.3512143 C73.1957917,29.1428507 71.7820133,29.9999822 70.3549956,30.8333836 C70.0618376,31.0032912 69.8292025,31.1485194 69.6202091,31.2861541 C69.531316,31.2833065 69.442423,31.2918493 69.3544755,31.2842557 C68.7596484,31.234897 67.4744813,31.7303817 67.2957495,32.2989551 C67.0640601,33.0355376 66.3207625,33.6933362 66.8569581,34.5865375 C66.8966763,34.6520326 66.8588494,34.7611911 66.8673605,34.8494671 C66.9657103,35.8451824 67.0205592,36.8494406 67.1756492,37.8366131 C67.4357088,39.494873 67.7988465,41.1369965 68.044721,42.7962057 C68.248986,44.1744503 68.329368,45.5716791 68.4958062,46.9575174 C68.7369523,48.971729 69.031056,50.9802453 69.2570714,52.9973045 C69.4698474,54.8957131 69.5568492,56.8102583 69.8197457,58.7010733 C70.1488393,61.0607952 70.6264032,63.3996347 70.9933236,65.7546106 C71.3299825,67.9206948 71.6240863,70.0943727 71.8973852,72.269949 C72.0742257,73.6709746 72.1612275,75.0824414 72.3229372,76.4853654 C72.5149085,78.1540666 73.0747458,78.6106339 74.6719843,78.3382123 C75.164679,78.2546823 75.6186011,78.0420605 76.0999477,78.3382123 C76.14534,78.3657392 76.2304504,78.3410599 76.2928647,78.3249234 C76.9084966,78.1673555 77.5222371,78.0059907 78.1369234,77.8465244 C79.5176032,77.9585305 81.6529287,77.2893415 82.7622009,76.5128923 C83.3939092,76.0715123 83.4345731,75.8826207 83.0298258,75.2162792 C82.4794452,74.3126367 82.1721021,73.3434991 82.2354621,72.2746951 C82.2628865,71.8152802 82.3451599,71.3520685 82.3186811,70.8955012 C82.2203313,69.1356764 82.1077965,67.3758516 81.9564891,65.6198236 C81.9025858,64.9942979 81.7446588,64.3754167 81.5990254,63.7622307 C81.4373156,63.0826004 81.1829301,62.4229034 81.0609385,61.7385271 C80.7157686,59.8030995 80.3857293,57.8629258 80.1086477,55.9161078 C79.9355899,54.6982786 79.7899565,53.4757035 79.6301381,52.2559759 C80.3857293,51.8259864 81.1252442,51.3722667 81.8486826,50.8910201 C81.9243363,51.0324516 81.9895876,51.1805274 82.0680783,51.3210097 C82.5361855,52.1648523 83.1688395,52.9147237 83.6719365,53.7414807 C84.2383935,54.6726501 84.6904243,55.6769083 85.2852515,56.5881444 C86.0654302,57.7812943 86.9467957,58.9098982 87.7676382,60.0774195 C88.8769105,61.6549971 89.9322794,63.2733905 91.0812699,64.8224919 C92.6009634,66.8727733 94.2331918,68.8404738 95.7339719,70.9059424 C97.0938469,72.7777733 98.2939036,74.7682548 99.6556701,76.6400857 C100.728061,78.1123016 101.955542,79.4696638 103.083728,80.9010639 C105.076257,83.4278458 107.044199,85.974561 109.029162,88.5079873 C109.204112,88.7319996 109.401757,88.9797419 109.64574,89.091748 C109.781917,89.1543955 110.205577,88.9683514 110.20936,88.8819738 C110.233947,88.3285877 110.295416,87.7296398 110.11763,87.2265615 C109.910528,86.6409024 109.985236,86.2602715 110.450506,85.9062183 C110.82972,85.6186094 110.96968,85.2721498 110.915776,84.7614779 C110.849579,84.1416475 110.925233,83.5189694 111.527625,83.0851831 C111.698792,82.9617865 111.826458,82.6286158 111.802816,82.4102988 C111.717705,81.6471385 111.909677,81.1364666 112.61893,80.8327212 C113.042591,80.6523724 113.130538,80.3884936 113.1608,79.9774881 C113.201463,79.424102 113.328183,78.8773603 113.419913,78.3154313 C113.148506,78.0562986 112.808064,77.8009626 112.551787,77.4782331" id="Fill-19" fill="#33FFFF" mask="url(#mask-2)"></path>
                <path d="M115.516995,56.6388373 C115.439839,55.7437301 115.400796,54.8428789 115.281808,53.9535156 C115.134003,52.8564109 114.904395,51.7707942 114.738928,50.6756042 C114.434952,48.6632883 114.162582,46.647143 113.857676,44.6357844 C113.597391,42.925986 113.300851,41.2219315 113.034059,39.5130905 C112.743097,37.6529906 112.499545,35.7842748 112.176977,33.9299189 C111.747506,31.4609547 111.272485,29.0006064 110.794676,26.5412156 C110.665463,25.8777831 110.597603,25.1559533 109.996158,24.8103558 C109.545307,24.8486491 109.205077,24.9529985 108.897382,24.8898145 C107.979877,24.7031344 107.073526,24.4484836 106.161598,24.2282968 C106.090949,24.2110647 105.990553,24.2340408 105.931989,24.2780781 C104.939187,25.0113959 103.812523,24.593041 102.757438,24.6093157 C101.939399,24.621761 101.25615,25.0573479 101.30077,25.9208632 C101.32401,26.3621941 101.388152,26.8054397 101.477392,27.239112 C101.697705,28.30271 101.972864,29.35482 102.171796,30.4232047 C102.505519,32.2105472 102.802988,34.0055483 103.104175,35.7986348 C103.335643,37.1762383 103.555956,38.5547992 103.767903,39.9352747 C104.064442,41.8604733 104.34239,43.7895012 104.638929,45.7146997 C104.854594,47.1162366 105.116738,48.5101148 105.307304,49.9145237 C105.515533,51.4424287 105.697732,52.977035 105.831593,54.513556 C106.039822,56.9164642 106.205289,59.3222444 106.369826,61.7280246 C106.410728,62.3282729 106.29267,62.9524547 106.405151,63.532599 C106.516701,64.1108287 106.210866,64.8795679 106.880171,65.2395255 C107.368206,65.501835 107.935256,65.7335098 108.47163,65.7440404 C109.520208,65.7660591 110.575293,65.6588377 111.620152,65.539171 C112.429825,65.4463096 113.243217,65.3055815 114.026861,65.08348 C114.539995,64.9389226 115.156314,64.7321385 115.453783,64.3367596 C115.933451,63.6953458 116.085904,62.8739533 115.990156,62.0046941 C115.792153,60.2211809 115.669447,58.4280945 115.516995,56.6388373" id="Fill-20" fill="#33FFFF" mask="url(#mask-2)"></path>
                <path d="M197.350669,60.0689693 C196.6333,59.6680658 195.901716,59.2767077 195.136965,58.9817573 C194.535209,58.7507605 193.873751,58.6820342 193.250199,58.5016277 C192.075116,58.1608597 190.971107,57.8630457 189.750537,58.5713085 C188.679695,59.1936634 187.444911,59.5344314 186.277409,59.9849705 C184.713791,60.5882348 183.150173,61.1934081 181.575183,61.7670819 C179.752857,62.4314362 177.908735,63.0347004 176.093042,63.7152818 C174.745488,64.2202293 173.453844,64.8855381 172.09018,65.3379863 C169.497417,66.1970652 166.99468,67.2718683 164.511844,68.3924889 C164.509001,68.3810346 164.507105,68.3705347 164.50521,68.3590803 C164.121413,66.4290165 163.717715,64.5037253 163.362347,62.5688888 C163.134912,61.3327698 162.981393,60.0823328 162.791864,58.839532 C162.539789,57.187237 162.251705,55.5406692 162.045117,53.882647 C161.950353,53.1180668 162.090604,52.321987 161.986363,51.5602705 C161.907709,50.9904148 161.801572,50.4243773 161.699226,49.8564307 C162.649716,49.6120705 163.596416,49.3562559 164.529849,49.0565328 C165.663235,48.6928561 166.710386,48.0676376 167.822924,47.6237802 C168.966734,47.1675139 170.158874,46.8324731 171.296999,46.3647524 C172.362155,45.9266222 173.399829,45.4140385 174.414759,44.8680461 C174.687681,44.7210482 174.849729,44.344008 175.031677,44.0519212 C175.119809,43.9096959 175.083798,43.6691539 175.19183,43.5632008 C175.717774,43.0448899 175.337767,42.6735769 174.95018,42.4521255 C173.958941,41.8832244 172.944958,41.3420047 171.895912,40.8952837 C171.162433,40.5821971 170.364514,40.4065632 169.581757,40.2366565 C168.559246,40.013296 167.556635,40.086795 166.589087,40.5650156 C165.787377,40.9611464 164.969557,41.3315048 164.13468,41.6474549 C163.01077,42.0731762 161.88307,42.4874432 160.757265,42.9074373 C160.701353,42.3509451 160.647337,41.7944529 160.586688,41.2389152 C160.42085,39.6906642 160.273017,38.1395496 160.074011,36.5951167 C159.919544,35.3943154 159.714852,34.2001957 159.502579,33.0079852 C159.183222,31.2106013 158.84586,29.4151265 158.499021,27.6225153 C158.38246,27.019251 158.245999,26.4198049 158.114276,25.8194042 C158.259266,25.7783593 158.404256,25.7535415 158.550194,25.6924514 C160.46918,24.8925535 162.469663,24.2787894 164.460671,23.669798 C166.424196,23.0684428 168.416151,22.5596772 170.400525,22.0270483 C172.256018,21.5287825 174.121936,21.0658345 175.972691,20.5484781 C176.263619,20.4673429 176.576343,20.2287099 176.723228,19.9719407 C176.788616,19.8583514 176.522327,19.44313 176.31574,19.2970866 C175.608795,18.7950027 174.875316,18.3253729 174.123831,17.8939244 C173.307907,17.4262037 172.464501,17.0062096 171.623937,16.585261 C171.435355,16.4907623 171.190862,16.4086725 170.995647,16.4458993 C169.53627,16.7188954 168.067417,16.9651647 166.630783,17.3326596 C164.402864,17.9015607 162.196741,18.5582787 159.983037,19.1825427 C158.574833,19.5796281 157.165681,19.9786225 155.756529,20.3766623 C155.51867,20.3442082 155.241957,20.3795259 154.907437,20.5255693 C154.769081,20.5866594 154.565336,20.485479 154.390969,20.4749791 C153.541877,20.4177072 152.686152,20.2793001 151.842746,20.3337084 C150.665767,20.410071 149.501109,20.6620674 148.325078,20.7813839 C147.388803,20.8758826 147.149996,21.1316972 147.367954,22.0585478 C147.456086,22.4374971 147.394489,22.6465396 147.01543,22.8326733 C146.621208,23.0245343 146.249731,23.818705 146.332176,24.2568352 C146.330281,24.2711532 146.322699,24.2845166 146.321752,24.2978801 C146.29427,24.6233755 146.675224,25.0758237 146.990791,25.3144567 C147.275085,25.5292264 147.694893,25.6122707 148.071109,25.6456793 C148.199041,25.7726321 148.290015,25.932039 148.339293,26.1506268 C148.600844,27.2893836 148.922096,28.4166859 149.121102,29.5659425 C149.483103,31.6487315 149.79867,33.7401113 150.087703,35.8343546 C150.464866,38.5662254 150.790857,41.3057325 151.150015,44.0404668 C151.366079,45.682262 151.613415,47.3192845 151.830426,48.9591706 C152.055966,50.6658739 152.267292,52.3735318 152.476722,54.0821442 C152.660565,55.5807595 152.823561,57.0822385 153.01309,58.5798993 C153.212096,60.1462864 153.419631,61.711719 153.644223,63.274288 C153.86692,64.8158573 154.135105,66.3516994 154.348325,67.8942232 C154.568179,69.494019 154.762447,71.1071781 154.981354,72.8673353 C154.213759,73.2863749 153.738988,73.8390489 153.595893,74.8374895 C153.361824,76.4668757 153.437636,76.7179176 154.99083,77.1770476 C155.929949,77.4538619 156.896549,77.6848586 157.865992,77.7974934 C158.756781,77.9005829 159.671261,77.8519017 160.571526,77.8013115 C161.111685,77.771721 161.643315,77.6094506 162.178736,77.5073157 C162.18916,77.5454969 162.198636,77.5846328 162.20906,77.622814 C162.445972,77.5569513 162.714156,77.5407243 162.916005,77.4156806 C163.376562,77.1321846 163.811532,76.8047801 164.245555,76.4792846 C165.025468,75.8960655 165.809173,75.3166646 166.566343,74.7048095 C167.116926,74.2599976 167.57464,73.6786875 168.16692,73.3092836 C169.474673,72.4950678 170.835495,71.7638962 172.185892,71.0203157 C173.136383,70.4962776 174.082135,69.9541034 175.071479,69.5159732 C176.340378,68.9556629 177.658556,68.5089419 178.940723,67.9791766 C180.591525,67.2966861 182.214845,66.5445149 183.876071,65.8877968 C186.275514,64.9380374 188.689172,64.0197775 191.115149,63.141608 C192.421955,62.6691147 193.788462,62.3608008 195.09053,61.8778076 C195.870444,61.5876298 196.592551,61.1246818 197.308972,60.6865516 C197.416057,60.6216434 197.433114,60.1147869 197.350669,60.0689693" id="Fill-21" fill="#33FFFF" mask="url(#mask-2)"></path>
                <path d="M135.307621,29.8514395 C135.983223,29.799302 136.25138,30.1140226 136.318656,30.7719024 C136.447523,32.0061379 135.851514,32.9559874 135.11053,33.8091456 C133.608665,35.5382129 131.93624,37.0814813 129.937858,38.2379846 C129.824152,38.3033934 129.713289,38.3716461 129.60053,38.4380028 C129.375014,37.4113691 129.145707,36.3866313 128.933456,35.3571537 C128.645401,33.9617661 128.370611,32.5635346 128.094874,31.1653031 C130.415423,30.3348958 132.85252,30.0419781 135.307621,29.8514395 M140.825201,39.5717553 C141.913935,38.7584111 142.926866,37.8531155 143.697223,36.6634337 C144.44484,35.5097743 145.596112,34.5864675 145.688972,33.0593143 C145.731612,32.3455053 145.932492,31.636436 145.934388,30.9254709 C145.93723,29.5935961 145.437872,28.4058103 144.427784,27.5479123 C143.739863,26.9639729 142.894649,26.5620406 142.108183,26.1003872 C141.251598,25.5989198 140.408279,25.063326 139.51095,24.6471744 C138.35873,24.1134766 137.176188,23.6300203 135.9728,23.2252441 C134.975031,22.8896685 133.927989,22.4848924 132.904635,22.492476 C131.019012,22.5057473 129.131494,22.7692784 127.250608,22.98162 C126.988137,23.0119545 126.727561,23.0460809 126.466037,23.0792592 C126.328642,22.8261556 126.088912,22.8631258 125.401939,22.9361183 C122.343249,23.2612663 119.701482,24.5466914 117.284283,26.3771897 C116.93369,26.6435646 116.899578,26.9744004 116.88347,27.4057193 C116.880627,27.4787117 116.895788,27.5450685 116.899578,27.616165 C116.881574,27.8152352 116.886312,28.0304207 116.942218,28.2854202 C117.055924,28.7973151 117.165839,29.290251 117.430206,29.6921833 C117.647194,30.6600439 117.823439,31.636436 118.027162,32.6071405 C118.381545,34.2935498 118.760565,35.9752195 119.095997,37.6654207 C119.464594,39.5196178 119.799079,41.3813986 120.141145,43.2403355 C120.145882,43.2659303 120.14683,43.2934209 120.151568,43.3199636 C120.14683,43.332287 120.134512,43.3493502 120.137354,43.3569338 C120.159148,43.4119151 120.165781,43.4631046 120.178099,43.51619 C120.187574,43.6299444 120.186627,43.741803 120.159148,43.8451299 C120.034071,44.3077312 119.772548,44.7494776 119.734646,45.2139748 C119.726118,45.3248854 119.743174,45.4632866 119.770653,45.6016878 C119.777286,45.9002932 119.80666,46.2472442 119.976271,46.4046045 C120.303175,46.7088976 120.654716,46.9695848 121.022365,47.1961457 C121.097222,47.4227066 121.146494,47.6663307 121.197662,47.9127986 C121.278204,48.2957719 121.339795,48.6834849 121.440235,49.0607704 C122.295872,52.2686452 123.147719,55.477468 124.039363,58.6749154 C124.109482,58.9242271 124.430701,59.1972378 124.693172,59.2835015 C126.608169,59.9186304 128.575282,59.7944485 130.536709,59.5688356 C130.940365,59.5223858 131.330756,59.3536501 131.726831,59.2408436 C131.741045,59.2910852 131.755258,59.3403788 131.770419,59.3896723 C132.313365,59.2294682 132.893265,59.1413085 133.392623,58.8919967 C134.15161,58.5128153 134.547686,57.8824262 134.628228,56.9742867 C134.702137,56.1201805 134.106128,55.619661 133.860713,54.9437702 C133.287445,53.3654275 132.708493,51.782345 132.264092,50.1651363 C131.867069,48.7185591 131.551535,47.2492311 131.233158,45.7808511 C131.507,45.6102194 131.780842,45.4386398 132.067949,45.2907591 C132.116274,45.2651643 132.169337,45.2452573 132.21861,45.2215585 C132.363585,45.1845883 132.521825,45.129607 132.708493,45.0452391 C132.8023,45.0035291 132.888527,44.9390683 132.974754,44.8765034 C133.13868,44.8054069 133.291236,44.7153513 133.451371,44.6376191 C134.006635,44.4821547 134.588431,44.2603336 135.129481,44.3228985 C136.082716,44.434757 136.908032,44.2015604 137.686917,43.7465427 C138.360625,43.353142 139.091186,42.9711167 139.821746,43.1938858 C143.501081,44.3143669 144.905349,47.435978 144.199425,50.9083319 C143.776818,52.9862461 142.683345,54.7494397 141.312241,56.3249385 C139.37545,58.5507334 137.021738,60.2229235 134.216991,61.1595016 C133.503487,61.3983859 132.677224,61.8486639 131.858541,61.2277543 C131.702195,61.1092601 131.318438,61.1215835 131.136508,61.233442 C130.061987,61.8894259 128.802694,62.4136442 128.795113,63.9834553 C128.793218,64.520945 128.670985,65.1001446 128.830173,65.5864448 C129.061375,66.2907743 129.78625,66.5315545 130.453325,66.5742124 C131.757153,66.6566843 133.04961,66.6130785 134.360071,66.3552351 C136.333817,65.9675221 138.234601,65.4328763 140.056738,64.5825619 C142.053225,63.6516715 143.875363,62.4534582 145.503253,60.9831823 C146.485861,60.0949498 147.521533,59.1887062 148.235038,58.0966637 C149.465904,56.21308 150.355653,54.1673962 150.575485,51.8411182 C150.91376,48.2673332 150.125399,45.1561497 147.478893,42.598571 C145.60464,40.7870317 143.25377,40.0390964 140.825201,39.5717553" id="Fill-22" fill="#33FFFF" mask="url(#mask-2)"></path>
            </g>
        </g>
    </g>
</svg>