<?xml version="1.0" encoding="UTF-8" standalone="no"?>
<svg width="40px" height="40px" viewBox="0 0 40 40" version="1.1" xmlns="http://www.w3.org/2000/svg" xmlns:xlink="http://www.w3.org/1999/xlink">
    <!-- Generator: Sketch 46 (44423) - http://www.bohemiancoding.com/sketch -->
    <title>Vimeo</title>
    <desc>Created with Sketch.</desc>
    <defs></defs>
    <g id="Symbols" stroke="none" stroke-width="1" fill="none" fill-rule="evenodd">
        <g id="Footer" transform="translate(-649.000000, -544.000000)">
            <g id="Vimeo" transform="translate(649.000000, 544.000000)">
                <circle id="Oval-Copy-2" fill="none" cx="20" cy="20" r="20"></circle>
                <g id="iconmonstr-vimeo-1" transform="translate(10.000000, 12.000000)" fill-rule="nonzero" fill="#1A4052">
                    <path d="M18.107735,6.94782176 C16.174491,11.2048405 11.5076306,17 8.55788987,17 C5.65089897,17 5.23052529,10.6099839 3.64323859,6.35704515 C2.86186604,4.26403134 2.35757595,4.74464932 0.892997204,5.8013561 L0,4.61409096 C2.13590998,2.67856317 4.27340329,0.430511299 5.58677417,0.30566486 C7.06560288,0.159602688 7.97601669,1.20162165 8.31643229,3.43253774 C8.76609755,6.36438906 9.39467892,10.9151641 10.4919255,10.9151641 C11.3469228,10.9151641 13.4535412,7.30522529 13.5619992,6.01432944 C13.7543736,4.12449708 12.2137951,4.0673778 10.8766743,4.65733842 C12.9927927,-2.48583622 21.7960984,-1.17046067 18.107735,6.94782176 Z" id="Shape"></path>
                </g>
            </g>
        </g>
    </g>
</svg>
